<svg width="349" height="349" viewBox="0 0 349 349" fill="none" xmlns="http://www.w3.org/2000/svg">
<g filter="url(#filter0_i)">
<path d="M240.593 326H108.407C94.4329 326 83 315.975 83 303.724V286H266V303.724C266 315.976 254.567 326 240.593 326Z" fill="url(#paint0_linear)"/>
</g>
<g filter="url(#filter1_i)">
<path d="M262.026 56.0774C270.946 55.7657 281.005 51.0148 290.899 40.3948C312.658 17.0376 277.761 -3.13419 260.107 0.405227C246.488 3.13556 240.203 25.4428 238.04 35.5006C221.26 25.1975 200.248 19.1627 174.003 19.1618C174.002 19.1618 174.002 19.1618 174 19.1618C173.999 19.1618 173.998 19.1618 173.997 19.1618C147.753 19.1627 126.741 25.1975 109.961 35.5006C107.798 25.4428 101.513 3.13556 87.8937 0.405227C70.2402 -3.13332 35.3429 17.0385 57.1025 40.3948C66.9956 51.0148 77.0549 55.7657 85.9754 56.0774C54.8446 92.3868 47 149.548 47 200H173.997H174.003H301C301 149.548 293.156 92.3868 262.026 56.0774Z" fill="url(#paint1_linear)"/>
</g>
<g filter="url(#filter2_i)">
<rect x="124" y="275" width="101" height="74" rx="31" fill="url(#paint2_linear)"/>
<rect opacity="0.5" x="172" y="289" width="6" height="45" rx="3" fill="url(#paint3_linear)"/>
</g>
<g filter="url(#filter3_i)">
<path d="M273.255 315H260.5L248.5 313.5L236 310.5L224 306L210 301.5L198 299.5L185 298.5L171 298L158.5 298.5L147 299.5L136.5 301.5L124.5 306L112.5 310.5L101 313L88.5 315H75.745C42.3351 315 15 286.636 15 251.968V223.032C15 188.364 42.3351 160 75.745 160H273.255C306.665 160 334 188.364 334 223.032V251.968C334 286.636 306.665 315 273.255 315Z" fill="url(#paint4_linear)"/>
</g>
<g filter="url(#filter4_i)">
<path d="M241.92 238.128C254.991 238.128 265.588 227.531 265.588 214.46C265.588 201.389 254.991 190.792 241.92 190.792C228.849 190.792 218.252 201.389 218.252 214.46C218.252 227.531 228.849 238.128 241.92 238.128Z" fill="url(#paint5_linear)"/>
</g>
<g filter="url(#filter5_i)">
<path d="M106.08 238.128C119.151 238.128 129.748 227.531 129.748 214.46C129.748 201.389 119.151 190.792 106.08 190.792C93.0085 190.792 82.412 201.389 82.412 214.46C82.412 227.531 93.0085 238.128 106.08 238.128Z" fill="url(#paint6_linear)"/>
</g>
<g filter="url(#filter6_i)">
<path d="M216.14 112.932C224.127 112.932 230.602 106.457 230.602 98.47C230.602 90.4829 224.127 84.008 216.14 84.008C208.153 84.008 201.678 90.4829 201.678 98.47C201.678 106.457 208.153 112.932 216.14 112.932Z" fill="url(#paint7_linear)"/>
<path d="M131.86 112.932C139.847 112.932 146.322 106.457 146.322 98.47C146.322 90.4829 139.847 84.008 131.86 84.008C123.873 84.008 117.398 90.4829 117.398 98.47C117.398 106.457 123.873 112.932 131.86 112.932Z" fill="url(#paint8_linear)"/>
</g>
<g filter="url(#filter7_i)">
<path d="M275.424 41.819C269.682 48.963 263.202 52.381 257.792 52.897C253.157 47.303 248.054 42.2 242.435 37.7C244.206 30.433 249.935 16.183 258.013 14.302C268.809 11.794 288.727 25.257 275.424 41.819Z" fill="url(#paint9_linear)"/>
</g>
<g filter="url(#filter8_i)">
<path d="M105.565 37.7C99.946 42.2 94.843 47.303 90.208 52.897C84.798 52.381 78.318 48.963 72.577 41.819C59.274 25.257 79.192 11.794 89.987 14.302C98.064 16.183 103.794 30.433 105.565 37.7Z" fill="url(#paint10_linear)"/>
</g>
<defs>
<filter id="filter0_i" x="83" y="286" width="183" height="40" filterUnits="userSpaceOnUse" color-interpolation-filters="sRGB">
<feFlood flood-opacity="0" result="BackgroundImageFix"/>
<feBlend mode="normal" in="SourceGraphic" in2="BackgroundImageFix" result="shape"/>
<feColorMatrix in="SourceAlpha" type="matrix" values="0 0 0 0 0 0 0 0 0 0 0 0 0 0 0 0 0 0 127 0" result="hardAlpha"/>
<feOffset/>
<feGaussianBlur stdDeviation="1"/>
<feComposite in2="hardAlpha" operator="arithmetic" k2="-1" k3="1"/>
<feColorMatrix type="matrix" values="0 0 0 0 0.0588235 0 0 0 0 0.439216 0 0 0 0 0.631373 0 0 0 1 0"/>
<feBlend mode="normal" in2="shape" result="effect1_innerShadow"/>
</filter>
<filter id="filter1_i" x="47" y="0" width="254" height="200" filterUnits="userSpaceOnUse" color-interpolation-filters="sRGB">
<feFlood flood-opacity="0" result="BackgroundImageFix"/>
<feBlend mode="normal" in="SourceGraphic" in2="BackgroundImageFix" result="shape"/>
<feColorMatrix in="SourceAlpha" type="matrix" values="0 0 0 0 0 0 0 0 0 0 0 0 0 0 0 0 0 0 127 0" result="hardAlpha"/>
<feOffset/>
<feGaussianBlur stdDeviation="1"/>
<feComposite in2="hardAlpha" operator="arithmetic" k2="-1" k3="1"/>
<feColorMatrix type="matrix" values="0 0 0 0 0.0862745 0 0 0 0 0.588235 0 0 0 0 0.827451 0 0 0 1 0"/>
<feBlend mode="normal" in2="shape" result="effect1_innerShadow"/>
</filter>
<filter id="filter2_i" x="124" y="275" width="101" height="74" filterUnits="userSpaceOnUse" color-interpolation-filters="sRGB">
<feFlood flood-opacity="0" result="BackgroundImageFix"/>
<feBlend mode="normal" in="SourceGraphic" in2="BackgroundImageFix" result="shape"/>
<feColorMatrix in="SourceAlpha" type="matrix" values="0 0 0 0 0 0 0 0 0 0 0 0 0 0 0 0 0 0 127 0" result="hardAlpha"/>
<feOffset/>
<feGaussianBlur stdDeviation="1"/>
<feComposite in2="hardAlpha" operator="arithmetic" k2="-1" k3="1"/>
<feColorMatrix type="matrix" values="0 0 0 0 0.721569 0 0 0 0 0.0823529 0 0 0 0 0.282353 0 0 0 1 0"/>
<feBlend mode="normal" in2="shape" result="effect1_innerShadow"/>
</filter>
<filter id="filter3_i" x="15" y="160" width="319" height="155" filterUnits="userSpaceOnUse" color-interpolation-filters="sRGB">
<feFlood flood-opacity="0" result="BackgroundImageFix"/>
<feBlend mode="normal" in="SourceGraphic" in2="BackgroundImageFix" result="shape"/>
<feColorMatrix in="SourceAlpha" type="matrix" values="0 0 0 0 0 0 0 0 0 0 0 0 0 0 0 0 0 0 127 0" result="hardAlpha"/>
<feOffset/>
<feGaussianBlur stdDeviation="1"/>
<feComposite in2="hardAlpha" operator="arithmetic" k2="-1" k3="1"/>
<feColorMatrix type="matrix" values="0 0 0 0 0.635294 0 0 0 0 0.662745 0 0 0 0 0.678431 0 0 0 1 0"/>
<feBlend mode="normal" in2="shape" result="effect1_innerShadow"/>
</filter>
<filter id="filter4_i" x="218.252" y="182.792" width="47.336" height="55.336" filterUnits="userSpaceOnUse" color-interpolation-filters="sRGB">
<feFlood flood-opacity="0" result="BackgroundImageFix"/>
<feBlend mode="normal" in="SourceGraphic" in2="BackgroundImageFix" result="shape"/>
<feColorMatrix in="SourceAlpha" type="matrix" values="0 0 0 0 0 0 0 0 0 0 0 0 0 0 0 0 0 0 127 0" result="hardAlpha"/>
<feOffset dy="-10"/>
<feGaussianBlur stdDeviation="4"/>
<feComposite in2="hardAlpha" operator="arithmetic" k2="-1" k3="1"/>
<feColorMatrix type="matrix" values="0 0 0 0 0 0 0 0 0 0 0 0 0 0 0 0 0 0 0.25 0"/>
<feBlend mode="normal" in2="shape" result="effect1_innerShadow"/>
</filter>
<filter id="filter5_i" x="82.412" y="182.792" width="47.336" height="55.336" filterUnits="userSpaceOnUse" color-interpolation-filters="sRGB">
<feFlood flood-opacity="0" result="BackgroundImageFix"/>
<feBlend mode="normal" in="SourceGraphic" in2="BackgroundImageFix" result="shape"/>
<feColorMatrix in="SourceAlpha" type="matrix" values="0 0 0 0 0 0 0 0 0 0 0 0 0 0 0 0 0 0 127 0" result="hardAlpha"/>
<feOffset dy="-10"/>
<feGaussianBlur stdDeviation="4"/>
<feComposite in2="hardAlpha" operator="arithmetic" k2="-1" k3="1"/>
<feColorMatrix type="matrix" values="0 0 0 0 0 0 0 0 0 0 0 0 0 0 0 0 0 0 0.25 0"/>
<feBlend mode="normal" in2="shape" result="effect1_innerShadow"/>
</filter>
<filter id="filter6_i" x="117.398" y="84.008" width="113.204" height="28.924" filterUnits="userSpaceOnUse" color-interpolation-filters="sRGB">
<feFlood flood-opacity="0" result="BackgroundImageFix"/>
<feBlend mode="normal" in="SourceGraphic" in2="BackgroundImageFix" result="shape"/>
<feColorMatrix in="SourceAlpha" type="matrix" values="0 0 0 0 0 0 0 0 0 0 0 0 0 0 0 0 0 0 127 0" result="hardAlpha"/>
<feOffset/>
<feGaussianBlur stdDeviation="1"/>
<feComposite in2="hardAlpha" operator="arithmetic" k2="-1" k3="1"/>
<feColorMatrix type="matrix" values="0 0 0 0 0.853889 0 0 0 0 0.877135 0 0 0 0 0.883333 0 0 0 1 0"/>
<feBlend mode="normal" in2="shape" result="effect1_innerShadow"/>
</filter>
<filter id="filter7_i" x="242.435" y="8.00008" width="37.4133" height="44.8969" filterUnits="userSpaceOnUse" color-interpolation-filters="sRGB">
<feFlood flood-opacity="0" result="BackgroundImageFix"/>
<feBlend mode="normal" in="SourceGraphic" in2="BackgroundImageFix" result="shape"/>
<feColorMatrix in="SourceAlpha" type="matrix" values="0 0 0 0 0 0 0 0 0 0 0 0 0 0 0 0 0 0 127 0" result="hardAlpha"/>
<feOffset dy="-6"/>
<feGaussianBlur stdDeviation="5"/>
<feComposite in2="hardAlpha" operator="arithmetic" k2="-1" k3="1"/>
<feColorMatrix type="matrix" values="0 0 0 0 0 0 0 0 0 0 0 0 0 0 0 0 0 0 0.25 0"/>
<feBlend mode="normal" in2="shape" result="effect1_innerShadow"/>
</filter>
<filter id="filter8_i" x="68.1527" y="8.00008" width="37.4123" height="44.8969" filterUnits="userSpaceOnUse" color-interpolation-filters="sRGB">
<feFlood flood-opacity="0" result="BackgroundImageFix"/>
<feBlend mode="normal" in="SourceGraphic" in2="BackgroundImageFix" result="shape"/>
<feColorMatrix in="SourceAlpha" type="matrix" values="0 0 0 0 0 0 0 0 0 0 0 0 0 0 0 0 0 0 127 0" result="hardAlpha"/>
<feOffset dy="-6"/>
<feGaussianBlur stdDeviation="5"/>
<feComposite in2="hardAlpha" operator="arithmetic" k2="-1" k3="1"/>
<feColorMatrix type="matrix" values="0 0 0 0 0 0 0 0 0 0 0 0 0 0 0 0 0 0 0.25 0"/>
<feBlend mode="normal" in2="shape" result="effect1_innerShadow"/>
</filter>
<linearGradient id="paint0_linear" x1="174.5" y1="296.949" x2="174.5" y2="337.429" gradientUnits="userSpaceOnUse">
<stop stop-color="#108ECE"/>
<stop offset="1" stop-color="#0E618B"/>
</linearGradient>
<linearGradient id="paint1_linear" x1="174" y1="-0.166409" x2="174" y2="191.958" gradientUnits="userSpaceOnUse">
<stop stop-color="#38C4F0"/>
<stop offset="1" stop-color="#108ECE"/>
</linearGradient>
<linearGradient id="paint2_linear" x1="174.5" y1="309.663" x2="174.5" y2="349" gradientUnits="userSpaceOnUse">
<stop stop-color="#E75081"/>
<stop offset="1" stop-color="#BA1448"/>
</linearGradient>
<linearGradient id="paint3_linear" x1="178" y1="312" x2="169.429" y2="312" gradientUnits="userSpaceOnUse">
<stop stop-color="#BB1649"/>
<stop offset="1" stop-color="#C84670"/>
</linearGradient>
<linearGradient id="paint4_linear" x1="174.5" y1="166.146" x2="174.5" y2="315.548" gradientUnits="userSpaceOnUse">
<stop stop-color="#E3ECF0"/>
<stop offset="1" stop-color="#A1A8AB"/>
</linearGradient>
<linearGradient id="paint5_linear" x1="242" y1="191" x2="242" y2="238" gradientUnits="userSpaceOnUse">
<stop stop-color="#727272"/>
<stop offset="1" stop-color="#303030"/>
</linearGradient>
<linearGradient id="paint6_linear" x1="106" y1="182.5" x2="106" y2="238" gradientUnits="userSpaceOnUse">
<stop stop-color="#727272"/>
<stop offset="1" stop-color="#303030"/>
</linearGradient>
<linearGradient id="paint7_linear" x1="216.14" y1="84.008" x2="216.14" y2="112.932" gradientUnits="userSpaceOnUse">
<stop stop-color="white"/>
<stop offset="1" stop-color="#CDDDE1"/>
</linearGradient>
<linearGradient id="paint8_linear" x1="131.86" y1="84.008" x2="131.86" y2="112.932" gradientUnits="userSpaceOnUse">
<stop stop-color="white"/>
<stop offset="1" stop-color="#CDDDE1"/>
</linearGradient>
<linearGradient id="paint9_linear" x1="261.142" y1="14.0001" x2="261.142" y2="52.897" gradientUnits="userSpaceOnUse">
<stop stop-color="#727272"/>
<stop offset="1" stop-color="#303030"/>
</linearGradient>
<linearGradient id="paint10_linear" x1="86.8589" y1="14.0001" x2="86.8589" y2="52.897" gradientUnits="userSpaceOnUse">
<stop stop-color="#727272"/>
<stop offset="1" stop-color="#303030"/>
</linearGradient>
</defs>
</svg>
